<?xml version="1.0" encoding="UTF-8"?>
<svg id="Layer_2" data-name="Layer 2" xmlns="http://www.w3.org/2000/svg" viewBox="0 0 76.5 76.5">
  <defs>
    <style>
      .cls-1 {
        fill: #8a5d3b;
      }
    </style>
  </defs>
  <g id="Layer_1-2" data-name="Layer 1">
    <path class="cls-1" d="m38.25,0C17.12,0,0,17.12,0,38.25s17.12,38.25,38.25,38.25,38.25-17.12,38.25-38.25S59.37,0,38.25,0Zm7.54,23.35c.44-.64,1.08-1.19,1.91-1.26.76-.07,1.56.03,2.31.2.94.21,1.79.7,2.47,1.39,1.09,1.11,1.83,2.42,2.17,3.96.29,1.29.24,2.53-.4,3.72-.38.71-.96,1.23-1.65,1.6-1.48.78-2.99.9-4.53.16-.68-.33-1.18-.86-1.6-1.45-1.02-1.44-1.66-3.02-1.77-4.8-.08-1.29.13-2.49,1.1-3.51Zm-12.13-5.06c.18-.98.49-1.93,1.18-2.71.74-.82,1.56-1.58,2.74-1.43.71.09,1.43.38,2.06.73,1.33.74,2.31,1.85,2.82,3.29.8,2.26.69,4.44-.51,6.59-.97,1.73-3.3,2.34-5.07,1.41-1.05-.56-1.81-1.46-2.36-2.51-.89-1.69-1.22-3.48-.86-5.37Zm-10.74,2.34c.9-1.95,2.33-2.75,4.53-2.08,1.7.52,2.78,1.77,3.63,3.22.89,1.51,1.25,3.18,1.04,4.93-.18,1.54-1.25,3.16-2.68,3.5-1.12.27-2.14.02-3.11-.52-.37-.21-.71-.48-.96-.64-1.48-1.28-2.26-2.81-2.66-4.55-.3-1.3-.37-2.64.2-3.87Zm.06,21.95c-1.27-.31-2.37-.96-3.28-1.95-1.01-1.1-1.71-2.35-2.01-3.8-.29-1.38-.45-2.79.31-4.1.95-1.64,2.51-2.52,4.53-1.93.4.12.8.28,1.18.48.38.2.71.48,1.04.7,1.63,1.53,2.75,3.31,2.89,5.55.1,1.59-.21,3.13-1.47,4.26-.9.81-2.02,1.07-3.18.79Zm33.61,6.46c-.82.95-1.91,1.39-3.05,1.78-.33.11-.64.25-.96.37-.7.14-1.4.27-2.09.43-1.32.3-2.64.59-3.95.94-1.97.53-3.68,1.6-5.4,2.66-1.28.79-2.57,1.55-3.89,2.26-.69.37-1.42.71-2.17.89-1.31.31-2.62.21-3.8-.51-2.03-1.23-3.41-2.96-3.98-5.28-.3-1.23-.12-2.44.22-3.64.52-1.83,1.57-3.42,2.27-5.17.52-1.3,1.03-2.6,1.46-3.94.46-1.45.8-2.94,1.21-4.4.26-.91.93-1.56,1.58-2.18.9-.86,2.02-1.36,3.24-1.6,1.39-.28,2.67-.06,3.9.7,1.12.69,2.29,1.29,3.47,1.88,2.29,1.14,4.74,1.88,7.14,2.76,1.1.4,2.22.83,3.23,1.42,1.05.61,1.8,1.58,2.37,2.68.53,1.03.73,2.13.83,3.26,0,1.75-.44,3.35-1.61,4.71Z"/>
  </g>
</svg>