<?xml version="1.0" encoding="UTF-8"?>
<svg id="Layer_1" data-name="Layer 1" xmlns="http://www.w3.org/2000/svg" viewBox="0 0 83.4 81.02">
  <defs>
    <style>
      .cls-1 {
        fill: #8a5d3b;
      }
    </style>
  </defs>
  <path class="cls-1" d="m41.86,17.88c-8.04,0-14.59,6.55-14.59,14.59s6.55,14.59,14.59,14.59,14.59-6.55,14.59-14.59-6.55-14.59-14.59-14.59Z"/>
  <path class="cls-1" d="m41.86,2.47C20.74,2.47,3.61,19.6,3.61,40.72s17.12,38.25,38.25,38.25,38.25-17.12,38.25-38.25S62.98,2.47,41.86,2.47Zm1.5,47.51v6.63h5.4c.83,0,1.5.67,1.5,1.5s-.67,1.5-1.5,1.5h-5.4v5.03c0,.83-.67,1.5-1.5,1.5s-1.5-.67-1.5-1.5v-5.03h-5.4c-.83,0-1.5-.67-1.5-1.5s.67-1.5,1.5-1.5h5.4v-6.63c-9-.77-16.09-8.32-16.09-17.51,0-9.7,7.89-17.59,17.59-17.59s17.59,7.89,17.59,17.59c0,9.19-7.09,16.75-16.09,17.51Z"/>
</svg>