<?xml version="1.0" encoding="UTF-8"?>
<svg id="Layer_2" data-name="Layer 2" xmlns="http://www.w3.org/2000/svg" viewBox="0 0 75.95 88.08">
  <defs>
    <style>
      .cls-1 {
        fill: #8a5d3b;
      }
    </style>
  </defs>
  <g id="Layer_1-2" data-name="Layer 1">
    <path class="cls-1" d="m5.48,71.3c8.53-1.47,17.23-1.37,25.78.15,3.26.65,6.76.65,9.85,2.02,5.16,2.38,9.52,6.16,10.97,11.64.14.54.06,1.11-.19,1.61v.03c-.4.77-1.16,1.27-2.02,1.3-5.17.18-9.49-.39-14.23-2.19-1.49-.67-3.53-2.12-4.91-3.05-4.3-2.52-8.91-4.2-13.61-6.15-3.79-1.5-7.71-2.81-11.69-4.06l.05-1.3h0Z"/>
    <path class="cls-1" d="m3.99,50.37c12.09-7.87,25.8-12.92,39.82-16.14,3.19-.77,6.44-1.64,9.75-1.68,4.17-.13,8.4.65,12.33,2.01,3.6,1.26,6.46,2.06,9.21,4.32.73.6,1.02,1.58.76,2.49h0c-.23.8-.85,1.44-1.66,1.66-5.51,1.52-10.21,2.08-15.98,2.76-5.85.82-11.7-.4-17.58-.08-12.21.79-24.21,2.77-36.1,5.84,0,0-.55-1.18-.55-1.18h0Z"/>
    <path class="cls-1" d="m.16,23.74c5.88-6.95,12.9-12.81,20.71-17.53C24.84,3.81,28.62.59,33.44.17c3.67-.41,7.47-.13,10.94,1.22,1.22.5,1.76.62,2.94,1.44.06.04.13.13.2.25.59,1.06.3,2.41-.58,3.25-2.38,2.26-4.42,3.09-7.18,4.82-2.63,1.66-5.39,2.9-8.47,3.36-1.83.25-4.41.66-6.16,1.19-8.15,2.5-16.29,5.48-24.16,9.06-.61.33-1.28-.49-.81-1.02H.16Z"/>
  </g>
</svg>