<?xml version="1.0" encoding="UTF-8"?>
<svg id="Layer_1" data-name="Layer 1" xmlns="http://www.w3.org/2000/svg" viewBox="0 0 142.58 44.4">
  <defs>
    <style>
      .cls-1 {
        fill: #8a5d3b;
      }
    </style>
  </defs>
  <g>
    <path class="cls-1" d="m61.91,9.17v22.67h13.11v4.39h-18.09V9.17h4.98Z"/>
    <path class="cls-1" d="m76.18,25.8c0-1.66.25-3.16.75-4.51.5-1.35,1.21-2.51,2.12-3.47.92-.96,2.01-1.7,3.28-2.23s2.68-.79,4.23-.79,2.96.26,4.23.79c1.27.52,2.37,1.27,3.28,2.23.91.96,1.62,2.12,2.12,3.47.5,1.35.75,2.85.75,4.51,0,1.1-.11,2.14-.34,3.11-.23.97-.55,1.87-.98,2.68s-.95,1.55-1.56,2.19c-.62.64-1.31,1.19-2.08,1.64s-1.61.79-2.52,1.03-1.88.35-2.91.35-2-.12-2.91-.35c-.92-.24-1.76-.58-2.53-1.03s-1.46-.99-2.07-1.64c-.61-.64-1.13-1.37-1.56-2.19s-.75-1.71-.98-2.68c-.23-.97-.34-2.01-.34-3.11Zm4.77,0c0,1.07.13,2.02.39,2.86.26.84.63,1.55,1.11,2.14s1.07,1.03,1.77,1.34c.7.31,1.48.46,2.36.46s1.66-.15,2.36-.46c.69-.31,1.28-.76,1.76-1.34s.85-1.3,1.11-2.14c.26-.84.38-1.8.38-2.86s-.13-2.02-.38-2.86c-.25-.84-.62-1.55-1.11-2.13-.48-.58-1.07-1.02-1.76-1.33-.69-.31-1.48-.46-2.36-.46s-1.66.15-2.36.46c-.7.31-1.29.76-1.77,1.34s-.85,1.29-1.11,2.13-.39,1.79-.39,2.86Z"/>
    <path class="cls-1" d="m119.53,15.37v17.57c0,1.67-.24,3.18-.72,4.53-.48,1.36-1.17,2.52-2.06,3.48s-1.97,1.71-3.23,2.23c-1.26.52-2.66.79-4.21.79-.91,0-1.79-.09-2.62-.27-.83-.18-1.6-.44-2.31-.78-.71-.34-1.35-.74-1.92-1.22-.57-.48-1.06-1.01-1.46-1.6-.4-.59-.71-1.24-.93-1.93s-.33-1.43-.33-2.2h4.74c0,.6.12,1.15.37,1.66.25.5.58.94,1.01,1.32.43.37.94.66,1.52.87.58.21,1.21.31,1.89.31.85,0,1.61-.17,2.29-.51s1.26-.82,1.74-1.44c.48-.62.85-1.37,1.1-2.26.26-.88.38-1.87.38-2.96v-3.97c-.25,1.03-.61,1.95-1.06,2.76-.46.81-1,1.5-1.64,2.07s-1.35,1-2.15,1.3c-.8.3-1.67.45-2.61.45-.83,0-1.61-.12-2.36-.35s-1.43-.57-2.07-1c-.63-.43-1.2-.96-1.71-1.58s-.94-1.31-1.3-2.09c-.36-.77-.63-1.61-.82-2.53-.19-.91-.29-1.88-.29-2.89s.1-1.98.29-2.89c.19-.91.47-1.74.82-2.51s.79-1.45,1.3-2.06c.51-.61,1.08-1.13,1.71-1.56.63-.43,1.32-.76,2.07-.98s1.53-.34,2.36-.34c.94,0,1.81.15,2.61.44.8.3,1.52.72,2.15,1.28s1.18,1.24,1.64,2.04.81,1.72,1.06,2.74v-5.94h4.75Zm-4.75,9.77c0-.99-.13-1.87-.38-2.64-.25-.77-.63-1.42-1.12-1.95-.49-.53-1.09-.93-1.81-1.21s-1.53-.41-2.44-.41c-1.77,0-3.13.52-4.07,1.57-.94,1.05-1.41,2.6-1.41,4.65,0,1.03.12,1.94.36,2.72.24.79.59,1.44,1.05,1.97.46.53,1.04.93,1.72,1.2.68.27,1.47.41,2.36.41s1.72-.14,2.43-.43c.71-.28,1.32-.7,1.81-1.23.49-.54.87-1.2,1.13-1.98.26-.78.39-1.67.39-2.66Z"/>
    <path class="cls-1" d="m121.8,25.8c0-1.66.25-3.16.75-4.51.5-1.35,1.21-2.51,2.12-3.47.92-.96,2.01-1.7,3.28-2.23s2.68-.79,4.23-.79,2.96.26,4.23.79c1.27.52,2.37,1.27,3.28,2.23.91.96,1.62,2.12,2.12,3.47.5,1.35.75,2.85.75,4.51,0,1.1-.11,2.14-.34,3.11-.23.97-.55,1.87-.98,2.68s-.95,1.55-1.56,2.19c-.62.64-1.31,1.19-2.08,1.64s-1.61.79-2.52,1.03-1.88.35-2.91.35-2-.12-2.91-.35c-.92-.24-1.76-.58-2.53-1.03s-1.46-.99-2.07-1.64c-.61-.64-1.13-1.37-1.56-2.19s-.75-1.71-.98-2.68c-.23-.97-.34-2.01-.34-3.11Zm4.77,0c0,1.07.13,2.02.39,2.86.26.84.63,1.55,1.11,2.14s1.07,1.03,1.77,1.34c.7.31,1.48.46,2.36.46s1.66-.15,2.36-.46c.69-.31,1.28-.76,1.76-1.34s.85-1.3,1.11-2.14c.26-.84.38-1.8.38-2.86s-.13-2.02-.38-2.86c-.25-.84-.62-1.55-1.11-2.13-.48-.58-1.07-1.02-1.76-1.33-.69-.31-1.48-.46-2.36-.46s-1.66.15-2.36.46c-.7.31-1.29.76-1.77,1.34s-.85,1.29-1.11,2.13-.39,1.79-.39,2.86Z"/>
  </g>
  <g>
    <path class="cls-1" d="m0,20.54c.06,0,.12-.01.19-.02-.06,0-.12.01-.19.02Z"/>
    <path class="cls-1" d="m54.97,30.2c0,1.75-.44,3.35-1.61,4.71-.82.95-1.91,1.39-3.05,1.78-.33.11-.64.25-.96.37-.7.14-1.4.27-2.09.43-1.32.3-2.64.59-3.95.94-1.97.53-3.68,1.6-5.4,2.66-1.28.79-2.57,1.55-3.89,2.26-.69.37-1.42.71-2.17.89-1.31.31-2.62.21-3.8-.51-2.03-1.23-3.41-2.96-3.98-5.28-.3-1.23-.12-2.44.22-3.64.52-1.83,1.57-3.42,2.27-5.17.52-1.3,1.03-2.6,1.46-3.94.46-1.45.8-2.94,1.21-4.4.26-.91.93-1.56,1.58-2.18.9-.86,2.02-1.36,3.24-1.6,1.39-.28,2.67-.06,3.9.7,1.12.69,2.29,1.29,3.47,1.87,2.29,1.14,4.74,1.88,7.14,2.76,1.1.4,2.22.83,3.23,1.42,1.05.61,1.8,1.58,2.37,2.68.53,1.03.73,2.13.83,3.26Z"/>
    <path class="cls-1" d="m21.52,17.84c1.63,1.53,2.75,3.31,2.89,5.55.1,1.59-.21,3.13-1.47,4.26-.9.81-2.02,1.07-3.18.79-1.27-.31-2.37-.96-3.28-1.95-1.01-1.1-1.71-2.35-2.01-3.8-.29-1.38-.45-2.79.31-4.1.95-1.64,2.51-2.52,4.53-1.93.4.12.8.28,1.18.48.38.2.71.48,1.04.7Z"/>
    <path class="cls-1" d="m31.62,1.45c.74-.82,1.56-1.58,2.74-1.43.71.09,1.43.38,2.06.73,1.33.74,2.31,1.85,2.82,3.29.8,2.26.69,4.44-.51,6.59-.97,1.73-3.3,2.34-5.07,1.41-1.05-.56-1.81-1.46-2.36-2.51-.89-1.69-1.22-3.48-.86-5.37.18-.98.49-1.93,1.18-2.71Z"/>
    <path class="cls-1" d="m42.57,9.22c.44-.64,1.08-1.19,1.91-1.26.76-.07,1.56.03,2.31.19.94.21,1.79.7,2.47,1.39,1.09,1.11,1.83,2.42,2.17,3.96.29,1.29.24,2.53-.4,3.72-.38.71-.96,1.23-1.65,1.6-1.48.78-2.99.9-4.53.16-.69-.33-1.18-.86-1.6-1.45-1.02-1.44-1.66-3.02-1.77-4.8-.08-1.29.13-2.49,1.1-3.51Z"/>
    <path class="cls-1" d="m22.16,14.91c-1.48-1.28-2.26-2.81-2.66-4.55-.3-1.3-.37-2.64.2-3.87.9-1.95,2.33-2.75,4.53-2.08,1.7.52,2.78,1.77,3.63,3.22.89,1.51,1.25,3.18,1.04,4.93-.18,1.54-1.25,3.16-2.68,3.5-1.12.27-2.14.02-3.11-.52-.37-.21-.71-.48-.96-.64Z"/>
  </g>
</svg>