<?xml version="1.0" encoding="UTF-8"?>
<svg id="Layer_1" data-name="Layer 1" xmlns="http://www.w3.org/2000/svg" viewBox="0 0 115.74 115.74">
  <defs>
    <style>
      .cls-1 {
        fill: #8a5d3b;
      }
    </style>
  </defs>
  <path class="cls-1" d="m68.27,24.43h-5.66v.89c0,15.27,0,30.53-.01,45.8,0,1.16-.06,2.36-.32,3.48-.74,3.14-2.24,5.85-4.83,7.89-3.43,2.7-7.27,3.78-11.57,2.94-3.38-.66-6.18-2.4-8.26-5.12-2.6-3.41-3.51-7.26-2.57-11.49.94-4.24,3.34-7.38,7.19-9.37,1.01-.52,2.1-.87,3.16-1.3v-5.41s-.08-.09-.12-.13c-1.57.46-3.21.77-4.7,1.41-3.05,1.32-5.54,3.38-7.55,6.07-3.53,4.74-4.67,10.06-3.51,15.76.97,4.74,3.48,8.65,7.43,11.58,4.18,3.09,8.81,4.39,13.99,3.76,2.54-.31,4.89-1.08,7.13-2.31,2.45-1.34,4.51-3.14,6.18-5.32,2.72-3.54,3.93-7.66,3.95-12.09.04-10.54.01-21.07.01-31.61v-.91c1.58,1.23,3.02,2.44,4.57,3.52,1.66,1.16,3.32,2.38,5.15,3.22,2.04.94,4.25,1.51,6.42,2.16.68.2,1.43.15,2.16.22.04-.04.08-.09.13-.13v-5.25c-10.16-2.16-16.19-8.27-18.34-18.26Z"/>
  <path class="cls-1" d="m57.87,0C25.91,0,0,25.91,0,57.87s25.91,57.87,57.87,57.87,57.87-25.91,57.87-57.87S89.83,0,57.87,0Zm34.93,54.65c-6.3-.1-12.42-.99-18.25-3.65v.76c0,6.51.04,13.02-.01,19.53-.04,4.19-.85,8.25-2.79,12-2.28,4.42-5.53,7.95-9.81,10.54-2.79,1.69-5.79,2.78-8.98,3.38-.65.12-1.31.21-1.97.32h-.46c-.2-.05-.4-.09-.6-.14-.68,0-1.36,0-2.04,0-.2.05-.41.09-.61.14h-1.08c-.1-.05-.2-.13-.3-.15-1.09-.19-2.2-.29-3.26-.56-2.44-.61-4.75-1.54-6.93-2.84-2.66-1.59-5-3.53-6.93-5.94-1.67-2.08-3.02-4.37-3.98-6.88-.96-2.52-1.62-5.1-1.69-7.82,0-.21-.1-.41-.15-.61v-1.86c.05-.23.15-.46.15-.69.07-2.67.72-5.21,1.65-7.69.95-2.53,2.32-4.86,4.03-6.95,2.1-2.57,4.6-4.67,7.55-6.24,2.08-1.11,4.24-1.99,6.54-2.47,1.35-.29,2.73-.49,4.11-.57,1.51-.1,3.04-.02,4.57-.02v18.13c-1.19-.16-2.32-.47-3.44-.44-3.57.11-6.43,2.47-7.32,5.98-1.19,4.66,2.02,8.98,6.3,9.74,2.33.41,4.57-.17,6.43-1.77,1.36-1.17,2.31-2.61,2.66-4.38.15-.74.24-1.51.24-2.27.01-17.38,0-34.77,0-52.15v-.87h18.06c-.56,5.3.53,10.11,4.41,13.97,3.85,3.83,8.63,4.91,13.91,4.35v18.12Z"/>
</svg>