<?xml version="1.0" encoding="UTF-8"?>
<svg id="Layer_1" data-name="Layer 1" xmlns="http://www.w3.org/2000/svg" viewBox="0 0 115.74 115.74">
  <defs>
    <style>
      .cls-1 {
        fill: #8a5d3b;
      }
    </style>
  </defs>
  <path class="cls-1" d="m57.87,0C25.91,0,0,25.91,0,57.87s25.91,57.87,57.87,57.87,57.87-25.91,57.87-57.87S89.83,0,57.87,0Zm37.19,59.12c-.02,3.87-.05,7.74-.16,11.61-.05,1.71-.24,3.43-.43,5.13-.33,3.01-1.24,5.83-2.75,8.48-2.51,4.4-6.23,7.29-10.91,9.06-2.58.97-5.28,1.28-8,1.45-2.52.15-5.05.3-7.57.29-6.99-.03-13.99.23-20.98-.28-1.46-.11-2.92-.17-4.37-.29-2.75-.24-5.31-1.09-7.75-2.37-3.61-1.9-6.42-4.62-8.35-8.23-2.19-4.08-2.89-8.51-3.02-13.07,0-.31-.09-.63-.14-.94v-24.03c.05-.19.13-.38.14-.58.11-1.41.18-2.82.3-4.22.21-2.35.74-4.62,1.57-6.84,1.32-3.56,3.48-6.5,6.45-8.8,3.52-2.73,7.61-4.07,12.01-4.44,1.75-.15,3.52-.09,5.28-.17.69-.03,1.38-.18,2.07-.28h18.5c.47.1.94.25,1.42.28,2.16.12,4.33.17,6.49.32,1.18.08,2.37.19,3.52.47,4.24,1.03,7.93,3.02,10.89,6.3,1.91,2.11,3.26,4.54,4.17,7.19,1.24,3.59,1.51,7.35,1.6,11.1.1,4.29.04,8.59.01,12.89Z"/>
  <path class="cls-1" d="m89.24,44.01c-.32-1.85-.56-3.9-1.04-5.89-1.01-4.2-3.45-7.34-7.28-9.4-2.28-1.22-4.74-1.66-7.26-1.87-2.06-.17-4.13-.24-6.2-.29-3.41-.08-6.82-.13-10.23-.14-1.52,0-3.03.09-4.55.14-1.83.05-3.67.1-5.5.15-1.71.05-3.43.02-5.13.17-1.5.13-3.02.32-4.46.74-4.7,1.39-7.92,4.45-9.63,9.05-1.2,3.23-1.46,6.64-1.45,10.02.02,8.74-.39,17.49.28,26.22.13,1.73.42,3.48.88,5.15,1.12,4.04,3.55,7.1,7.3,9.06,2.45,1.28,5.1,1.77,7.83,1.92,2.31.13,4.62.28,6.92.28,5.91,0,11.82-.07,17.73-.13,1.69-.02,3.37-.08,5.06-.15.79-.03,1.59-.03,2.37-.15,2.48-.38,4.84-1.06,7-2.42,2.71-1.71,4.6-4.05,5.77-7.01,1.25-3.14,1.46-6.47,1.56-9.77.14-4.44.03-8.89.03-13.33,0-4.04,0-8.08,0-12.33Zm-18.31,26.39c-3.51,3.6-7.81,5.55-12.9,5.69-10.15.28-18.68-8.39-18.45-18.26-.07-10.13,8.16-17.89,17.52-18.13,5.07-.13,9.59,1.53,13.28,5.08,3.7,3.55,5.56,8.01,5.58,13.1.01,4.8-1.66,9.07-5.02,12.53Zm7.01-27.82c-2.21.17-4.19-2.08-4.31-3.98-.18-2.97,2.08-4.78,4.27-4.73,2.79.07,4.43,1.93,4.45,4.36.02,2.46-2.13,4.44-4.41,4.34Z"/>
  <path class="cls-1" d="m57.7,45.51c-6.73-.07-12.38,5.43-12.3,12.32-.24,6.47,5.49,12.94,13.16,12.4,6.06-.42,11.59-5.35,11.55-12.43-.04-6.93-5.37-12.22-12.41-12.29Z"/>
</svg>