<?xml version="1.0" encoding="UTF-8"?>
<svg id="Layer_1" data-name="Layer 1" xmlns="http://www.w3.org/2000/svg" viewBox="0 0 115.74 115.74">
  <defs>
    <style>
      .cls-1 {
        fill: #8a5d3b;
      }
    </style>
  </defs>
  <path class="cls-1" d="m87.83,31.16c0-1.96-1.19-3.29-3.29-3.29-17.84.01-35.67,0-53.51,0-.19,0-.37,0-.56,0-1.56.07-2.64,1.4-2.64,2.71.02,18.23.02,36.46,0,54.7,0,1.19,1.41,2.58,2.58,2.57,9.67-.03,19.34-.01,29.01-.01.2,0,.4-.02.59-.03v-20.26h-8.94v-8.61h8.99c0-3.38-.04-6.71.02-10.04.02-.95.19-1.94.49-2.85.81-2.53,2.24-4.66,4.35-6.34,2.18-1.74,4.67-2.66,7.42-2.79,1.15-.06,2.31.15,3.47.25,1.08.09,2.16.19,3.21.28v8.18c-2.39,0-4.73-.05-7.08.02-1.8.05-3.27,1.92-3.28,3.6-.03,3.08,0,6.15,0,9.23,0,.15.02.31.04.51h9.83c-.35,2.88-.69,5.7-1.04,8.61h-8.8v20.25c5.35,0,10.62-.05,15.9.03,1.71.03,3.26-1.25,3.25-3.28-.04-17.82-.03-35.63,0-53.45Z"/>
  <path class="cls-1" d="m57.87,0C25.91,0,0,25.91,0,57.87s25.91,57.87,57.87,57.87,57.87-25.91,57.87-57.87S89.83,0,57.87,0Zm35.5,86.47c-.09.19-.21.37-.26.57-.77,2.67-2.34,4.65-4.97,5.7-.65.26-1.32.45-1.99.66H29.24c-2-.54-3.78-1.42-5.12-3.09-1.03-1.29-1.79-2.74-1.79-4.34-.05-18.53-.03-37.06-.02-55.59,0-.5.04-1,.15-1.48.5-2.18,1.64-3.93,3.51-5.17,1.49-.99,3.14-1.4,4.92-1.4,16.82,0,33.63,0,50.45,0,1.54,0,3.09.01,4.62.15,2.8.25,4.91,1.68,6.28,4.11.49.87.76,1.87,1.13,2.81v57.06Z"/>
</svg>