<?xml version="1.0" encoding="UTF-8"?>
<svg id="Layer_1" data-name="Layer 1" xmlns="http://www.w3.org/2000/svg" viewBox="0 0 115.74 115.74">
  <defs>
    <style>
      .cls-1 {
        fill: #8a5d3b;
      }
    </style>
  </defs>
  <path class="cls-1" d="m57.87,0C25.91,0,0,25.91,0,57.87s25.91,57.87,57.87,57.87,57.87-25.91,57.87-57.87S89.83,0,57.87,0Zm34.28,85.46c-.09.18-.2.36-.25.55-.74,2.58-2.26,4.49-4.79,5.5-.62.25-1.28.43-1.92.64H30.29c-1.93-.52-3.65-1.37-4.94-2.98-.99-1.24-1.72-2.64-1.73-4.19-.04-17.88-.03-35.75-.02-53.63,0-.48.04-.97.14-1.43.48-2.1,1.58-3.79,3.39-4.99,1.44-.95,3.03-1.35,4.75-1.35,16.22,0,32.44,0,48.66,0,1.48,0,2.98.01,4.45.14,2.7.24,4.74,1.62,6.06,3.97.48.84.74,1.8,1.09,2.71v55.04Z"/>
  <path class="cls-1" d="m86.81,32.15c0-1.94-1.15-3.21-3.2-3.21-16.76.01-33.51,0-50.27,0-.6,0-1.2,0-1.81,0-1.54.03-2.6,1.36-2.6,2.63.03,8.75.01,17.5.01,26.24h0c0,8.84.01,17.67-.01,26.51,0,1.13,1.34,2.48,2.49,2.47,17.4-.02,34.81-.03,52.21.02,1.7,0,3.17-1.22,3.17-3.19-.04-17.16-.03-34.32,0-51.48Zm-41.83,48.07h-9.3v-30.21h9.3v30.21Zm-4.22-34.41c-3.29.28-5.94-2.62-5.78-5.51-.05-3.08,2.42-5.47,5.3-5.44,3.27.04,5.56,2.15,5.63,5.43.07,2.91-2.11,5.26-5.16,5.52Zm39.34,34.38h-9.24v-.67c0-3.7.01-7.41,0-11.11-.01-1.91-.02-3.82-.15-5.72-.08-1.22-.36-2.43-1.1-3.48-.7-1-1.65-1.44-2.84-1.63-1.25-.2-2.43-.09-3.57.39-1.72.74-2.5,2.23-2.89,3.94-.19.84-.27,1.73-.28,2.6-.03,5.09-.01,10.17-.02,15.26,0,.13,0,.26,0,.43h-9.07v-30.19h9.03v3.84c1.64-2.46,3.96-3.83,6.75-4.23,2.71-.39,5.45-.21,8.01.96,2.04.94,3.45,2.53,4.14,4.64.45,1.39.85,2.85.92,4.3.2,3.81.24,7.63.3,11.45.04,3.06,0,6.11,0,9.21Z"/>
</svg>