<?xml version="1.0" encoding="UTF-8"?>
<svg id="Layer_1" data-name="Layer 1" xmlns="http://www.w3.org/2000/svg" viewBox="0 0 122.69 69.51">
  <defs>
    <style>
      .cls-1 {
        fill: #8a5d3b;
      }
    </style>
  </defs>
  <path class="cls-1" d="m98.41,51.73c-.32,0-.64-.15-.83-.44-.31-.46-.19-1.08.27-1.39,5.67-3.85,8.1-8.27,9.15-11.31.74-2.14,2.46-3.81,4.61-4.47l7.07-2.17c1.36-.42,2.21-1.78,1.98-3.17-.72-4.3-3.21-9.48-11.04-9.74-8.98-.32-9.49,4.45-10.15,10.46l-.06.57c-.74,6.65-8.8,9.88-9.14,10.02-.29.11-.61.09-.87-.07-.27-.16-.44-.43-.48-.73-.19-1.5-5.11-36.62-40.92-37.27-14.97-.28-26.41,5.87-33.96,18.28-5.67,9.33-6.91,18.89-6.92,18.99-.07.55-.56.94-1.12.87-.55-.07-.94-.57-.87-1.11C5.16,38.63,10.42-.65,48.02,0c33.52.62,41.31,30.91,42.63,37.69,2.07-1.07,6.3-3.73,6.76-7.85l.06-.57c.65-5.91,1.37-12.6,12.2-12.24,7.16.24,11.76,4.29,12.94,11.42.4,2.37-1.05,4.7-3.36,5.41l-7.07,2.17c-1.54.47-2.78,1.68-3.31,3.21-1.14,3.32-3.79,8.16-9.91,12.31-.17.12-.37.17-.56.17Z"/>
  <path class="cls-1" d="m48.09,54.55c-3.92,0-7.85-.66-11.57-1.98l-10.94-3.87c-3.49-.92-7.16-1.4-10.85-1.4H3.38c-.55,0-1-.45-1-1s.45-1,1-1h11.34c3.86,0,7.71.5,11.44,1.49l11.02,3.9c6.83,2.42,14.38,2.48,21.25.19l12.66-4.23c3.61-.9,7.24-1.35,10.88-1.35h11.33c.55,0,1,.45,1,1s-.45,1-1,1h-11.33c-3.48,0-6.95.43-10.32,1.26l-12.58,4.21c-3.55,1.18-7.26,1.78-10.98,1.78Z"/>
  <path class="cls-1" d="m49.54,68.09c-.4,0-.81,0-1.22-.01-17.06-.34-29.54-6.65-30.07-6.92-.49-.25-.68-.85-.43-1.35.25-.49.85-.68,1.35-.43.12.06,12.61,6.37,29.19,6.7,16.54.33,29.69-6.62,29.82-6.69.49-.26,1.09-.08,1.35.41s.08,1.09-.41,1.35c-.54.29-13.09,6.94-29.59,6.94Z"/>
  <path class="cls-1" d="m16.33,68.09H1c-.27,0-.53-.11-.72-.31s-.29-.46-.28-.73c.35-8.63,6.66-20.7,6.93-21.21.26-.49.86-.68,1.35-.42.49.26.68.86.42,1.35-.06.12-5.86,11.2-6.63,19.32h13.29c.15-3.44.89-14.89,4.2-20.31.29-.47.9-.62,1.38-.33.47.29.62.9.33,1.38-3.56,5.83-3.94,20.15-3.94,20.29-.01.54-.46.98-1,.98Z"/>
  <path class="cls-1" d="m96.26,69.51h-15.33c-.54,0-.99-.43-1-.98,0-.14-.38-14.46-3.94-20.29-.29-.47-.14-1.09.33-1.38.47-.29,1.09-.14,1.38.33,3.31,5.42,4.05,16.87,4.2,20.31h13.29c-.77-8.12-6.56-19.21-6.63-19.32-.26-.49-.07-1.09.42-1.35.49-.26,1.09-.07,1.35.42.27.51,6.58,12.58,6.93,21.21.01.27-.09.54-.28.73s-.45.31-.72.31Z"/>
</svg>