<?xml version="1.0" encoding="UTF-8"?>
<svg id="Layer_1" data-name="Layer 1" xmlns="http://www.w3.org/2000/svg" viewBox="0 0 78.16 88.86">
  <defs>
    <style>
      .cls-1 {
        fill: #8a5d3b;
      }
    </style>
  </defs>
  <path class="cls-1" d="m59.35,88.86c-.18,0-.36-.05-.53-.15-.47-.29-.61-.91-.32-1.38,5.2-8.35,2.22-29.87.69-38.73-.23-1.34.11-2.72.94-3.8.82-1.07,2.06-1.76,3.4-1.88,8.88-.83,11.67-5.96,12.54-8.95.2-.69.01-1.44-.49-1.96l-3.38-3.49c-1.3-1.34-2.43-2.96-3.35-4.8-2.51-5.02-7.34-8.31-9.99-9.82-1.8-1.02-2.77-3.07-2.41-5.1.37-2.09.13-4.17-.14-5.55-.08-.43-.34-.8-.71-1.03-.37-.23-.8-.29-1.21-.18-10.07,2.76-13.82,11.18-13.85,11.27-.1.22-.27.41-.49.51-12.64,5.93-11.41,24.44-11.39,24.63.02.29-.08.57-.28.77-.2.21-.48.31-.76.3-13.84-.61-26.05,5.3-26.17,5.36-.5.24-1.1.04-1.34-.46-.24-.5-.04-1.09.46-1.34.5-.25,12.17-5.9,26.06-5.59-.04-1.78.04-5.48,1.01-9.64,1.75-7.51,5.64-12.92,11.24-15.68.85-1.75,5.06-9.34,15-12.06.94-.26,1.96-.11,2.8.41.84.52,1.43,1.38,1.62,2.35.3,1.54.57,3.88.15,6.28-.21,1.19.36,2.41,1.43,3.01,3.48,1.98,8.18,5.44,10.79,10.66.83,1.66,1.84,3.11,3,4.3l3.38,3.49c1,1.03,1.37,2.53.97,3.91-.82,2.8-3.84,9.4-14.28,10.38-.8.07-1.51.47-2,1.11-.5.65-.69,1.44-.55,2.24,1.94,11.29,4.39,31.52-.97,40.13-.19.3-.52.47-.85.47Z"/>
</svg>