<?xml version="1.0" encoding="UTF-8"?>
<svg id="Layer_1" data-name="Layer 1" xmlns="http://www.w3.org/2000/svg" viewBox="0 0 108.13 91.32">
  <defs>
    <style>
      .cls-1 {
        fill: #8a5d3b;
      }
    </style>
  </defs>
  <path class="cls-1" d="m4.67,91.32c-.11,0-.22,0-.33-.02-.89-.11-1.65-.67-2.01-1.49-7.36-16.53,4.29-36.06,12.79-50.33.28-.47.56-.93.83-1.39.6-1.1,1.26-2.2,1.94-3.34l.74-1.25c5.29-9.4,14.99-16.56,26.63-19.66,13.5-3.59,28.17-1.24,41.31,6.63,13.96,8.36,19.12,16.34,20.99,21.56.9,2.52.74,5.24-.45,7.65-1.19,2.4-3.24,4.16-5.77,4.97-7.11,2.27-16.94,1.44-29.22-2.46-.53-.17-.82-.73-.65-1.26.17-.53.73-.82,1.26-.65,14.8,4.69,23.4,3.93,28.01,2.46,2.01-.64,3.64-2.05,4.59-3.95.95-1.92,1.08-4.08.36-6.09-1.76-4.91-6.68-12.46-20.14-20.52-12.67-7.58-26.79-9.86-39.77-6.41-11.12,2.95-20.38,9.78-25.4,18.71-.81,1.45-1.73,3.01-2.71,4.65-3.5,6.36-4.82,11.84,1.85,22.92,8.77,14.56,6.54,23.21,4.43,27.06-.37.68-1.02,1.15-1.78,1.28-.76.14-1.54-.07-2.13-.57l-7.28-6.22c-.16-.13-.33-.14-.42-.13-.09,0-.26.05-.39.21l-5.27,6.66c-.49.62-1.23.97-2,.97Zm8.17-44c-7.36,12.9-14.54,28.52-8.68,41.67.11.25.34.31.43.32.09.01.34.02.52-.21l5.27-6.66c.44-.55,1.06-.89,1.76-.96.7-.07,1.38.15,1.91.6l7.28,6.22c.18.15.37.14.47.13.1-.02.28-.08.38-.28,1.53-2.8,4.18-10.86-4.39-25.07-4.01-6.65-5.26-11.57-4.96-15.77Z"/>
  <path class="cls-1" d="m18.66,63.57c-.16,0-.32-.04-.47-.12-.49-.26-.68-.86-.42-1.35.15-.28,15.14-27.94,43.6-16.02.51.21.75.8.54,1.31-.21.51-.8.75-1.31.54-26.79-11.22-40.92,14.84-41.06,15.11-.18.34-.53.53-.89.53Z"/>
  <path class="cls-1" d="m54.18,63.86c-.69,0-1.37-.22-1.93-.64-.71-.53-1.18-1.33-1.29-2.21-.33-2.68-1.11-7.54-2.6-10.03-.66-1.1-.35-1.96-.11-2.37,1.57-2.69,10.17-2.68,12.76-2.61.55.01.99.47.97,1.03-.01.55-.48.99-1.03.97-4.77-.12-10.32.5-10.98,1.62-.04.06,0,.17.1.34,1.6,2.66,2.44,7.35,2.87,10.81.04.34.22.64.49.84.28.2.62.28.95.23,10.97-1.92,18.85-13.94,18.93-14.07.3-.46.92-.6,1.38-.3.46.3.6.92.3,1.38-.34.52-8.42,12.87-20.27,14.95-.18.03-.37.05-.55.05Z"/>
  <path class="cls-1" d="m69.95,15.31c-.37,0-.72-.2-.9-.55-.04-.09-4.3-8.39-14.85-12.33-.11,1.31-.64,3.26-2.52,5.42-2.44,2.81-1.22,4.92-1.17,5.01.28.47.14,1.08-.33,1.37-.46.29-1.07.15-1.37-.31-.09-.14-2.11-3.41,1.35-7.39,2.56-2.95,2.02-5.17,2-5.27-.09-.35.01-.74.28-.99.27-.25.64-.34.99-.23,12.4,3.97,17.21,13.42,17.41,13.82.25.49.04,1.09-.45,1.34-.14.07-.29.1-.44.1Z"/>
</svg>