<?xml version="1.0" encoding="UTF-8"?>
<svg id="Layer_1" data-name="Layer 1" xmlns="http://www.w3.org/2000/svg" viewBox="0 0 114.37 60.59">
  <defs>
    <style>
      .cls-1 {
        fill: #8a5d3b;
      }
    </style>
  </defs>
  <path class="cls-1" d="m4.27,52.43c-2.03,0-3.28-.26-3.49-.31-.54-.12-.88-.65-.76-1.19.12-.54.65-.88,1.19-.76.25.05,21.83,4.3,39.14-28.77.26-.49.86-.68,1.35-.42.49.26.68.86.42,1.35-14.08,26.9-30.73,30.1-37.86,30.1Z"/>
  <path class="cls-1" d="m71.52,60.59c-.09,0-.19-.01-.28-.04-.53-.15-.83-.71-.68-1.24,4.46-15.3,14.72-14.84,22.21-14.5,2.01.09,3.92.18,5.52-.02,5.28-.66,12.05-8.66,13.69-14.5.5-1.78.76-4.18-.84-5.44-1.96-1.56-4.57-2.03-7.59-2.58-5.29-.97-11.28-2.06-15.76-9.43-6.35-10.45-17.68-9.34-18.16-9.29-.33.04-.65-.09-.87-.34-.01-.01-3.33-3.27-15.34,1.08-11.01,3.99-11.91,8.52-11.99,9.27,5.78,16.65,12.66,21.6,16.26,23.07,1.99.81,3.94.92,5.2.29,1.59-.79,1.84-9.13-.53-21.23-.04-.19-.02-.38.05-.55l2.39-6.18c.2-.52.78-.77,1.29-.57.52.2.77.78.57,1.29l-2.29,5.91c1.02,5.25,3.66,20.99-.59,23.12-1.79.9-4.29.81-6.85-.23-3.92-1.6-11.41-6.91-17.46-24.44-.03-.08-.05-.17-.05-.26-.02-.26-.3-6.44,13.31-11.37,11.39-4.13,15.84-1.9,17.13-.88,2.39-.12,13.36-.05,19.62,10.27,4.01,6.6,9.29,7.57,14.41,8.5,3.15.57,6.12,1.12,8.47,2.98,1.36,1.08,2.72,3.26,1.52,7.55-1.83,6.54-9.28,15.18-15.37,15.94-1.77.22-3.76.13-5.86.04-7.59-.34-16.18-.73-20.2,13.07-.13.44-.53.72-.96.72Z"/>
</svg>